HIERARCHY
ROOT joint_Root
{
	OFFSET 0.0 0.0 0.0
	CHANNELS 6 Xposition Yposition Zposition Zrotation Xrotation Yrotation 
	JOINT Hips
	{
		OFFSET -0.726466 93.3139 -2.00062
		CHANNELS 6 Xposition Yposition Zposition Zrotation Xrotation Yrotation 
		JOINT Spine
		{
			OFFSET 15.7357 0.0 0.0
			CHANNELS 6 Xposition Yposition Zposition Zrotation Xrotation Yrotation 
			JOINT Chest
			{
				OFFSET 8.98455 -0.406207 0.0
				CHANNELS 6 Xposition Yposition Zposition Zrotation Xrotation Yrotation 
				JOINT Neck
				{
					OFFSET 16.3773 0.0 0.0
					CHANNELS 6 Xposition Yposition Zposition Zrotation Xrotation Yrotation 
					JOINT Head
					{
						OFFSET 6.45672 0.0 0.0
						CHANNELS 6 Xposition Yposition Zposition Zrotation Xrotation Yrotation 
						End Site
						{
							OFFSET 0.0 0.0 0.0
						}
					}
				}
				JOINT Shoulder_L
				{
					OFFSET 12.9942 -0.242716 4.98039
					CHANNELS 6 Xposition Yposition Zposition Zrotation Xrotation Yrotation 
					JOINT UpperArm_L
					{
						OFFSET 5.34809 0.0 0.0
						CHANNELS 6 Xposition Yposition Zposition Zrotation Xrotation Yrotation 
						JOINT LowerArm_L
						{
							OFFSET 24.3286 1.87007e-05 0.0
							CHANNELS 6 Xposition Yposition Zposition Zrotation Xrotation Yrotation 
							JOINT Hand_L
							{
								OFFSET 22.2916 0.0 0.0
								CHANNELS 6 Xposition Yposition Zposition Zrotation Xrotation Yrotation 
								End Site
								{
									OFFSET 0.0 0.0 0.0
								}
							}
						}
					}
				}
				JOINT Shoulder_R
				{
					OFFSET 12.9945 -0.242716 -4.98039
					CHANNELS 6 Xposition Yposition Zposition Zrotation Xrotation Yrotation 
					JOINT UpperArm_R
					{
						OFFSET -5.34813 0.0 0.0
						CHANNELS 6 Xposition Yposition Zposition Zrotation Xrotation Yrotation 
						JOINT LowerArm_R
						{
							OFFSET -24.3289 0.000322201 0.0
							CHANNELS 6 Xposition Yposition Zposition Zrotation Xrotation Yrotation 
							JOINT Hand_R
							{
								OFFSET -22.2915 -0.000108084 0.0
								CHANNELS 6 Xposition Yposition Zposition Zrotation Xrotation Yrotation 
								End Site
								{
									OFFSET 0.0 0.0 0.0
								}
							}
						}
					}
				}
			}
		}
		JOINT UpperLeg_L
		{
			OFFSET -2.19248 -6.46944 0.0
			CHANNELS 6 Xposition Yposition Zposition Zrotation Xrotation Yrotation 
			JOINT LowerLeg_L
			{
				OFFSET 39.0811 0.0 -1.23785e-05
				CHANNELS 6 Xposition Yposition Zposition Zrotation Xrotation Yrotation 
				JOINT Foot_L
				{
					OFFSET 40.9854 0.0 -1.26872e-05
					CHANNELS 6 Xposition Yposition Zposition Zrotation Xrotation Yrotation 
					JOINT Toes_L
					{
						OFFSET 11.7543 0.0 0.0
						CHANNELS 6 Xposition Yposition Zposition Zrotation Xrotation Yrotation 
						End Site
						{
							OFFSET 0.0 0.0 0.0
						}
					}
				}
			}
		}
		JOINT UpperLeg_R
		{
			OFFSET -2.19251 6.46944 0.0
			CHANNELS 6 Xposition Yposition Zposition Zrotation Xrotation Yrotation 
			JOINT LowerLeg_R
			{
				OFFSET -39.0811 -0.00228153 -0.0401928
				CHANNELS 6 Xposition Yposition Zposition Zrotation Xrotation Yrotation 
				JOINT Foot_R
				{
					OFFSET -40.9854 0.0 0.0
					CHANNELS 6 Xposition Yposition Zposition Zrotation Xrotation Yrotation 
					JOINT Toes_R
					{
						OFFSET -11.7543 0.0 0.0
						CHANNELS 6 Xposition Yposition Zposition Zrotation Xrotation Yrotation 
						End Site
						{
							OFFSET 0.0 0.0 0.0
						}
					}
				}
			}
		}
	}
}
MOTION
Frames:	4
Frame Time:	0.0333333
0.000000 0.000000 0.000000 0.000000 0.000000 -0.000000 -0.556394 92.206400 -0.289551 87.906600 -1.302010 5.042880 15.735700 0.000005 -0.000001 98.552200 85.610900 -99.241600 8.984550 -0.406207 -0.000000 0.923381 1.346070 -1.388560 16.377300 -0.000001 -0.000001 4.257050 -2.272130 0.935110 6.456720 -0.000001 -0.000000 1.145990 -2.186280 -5.383970 12.994200 -0.242716 4.980390 -90.038400 0.121933 -72.543500 5.348090 -0.000007 -0.000001 -67.191900 38.592100 -12.888200 24.328600 0.000019 0.000005 0.744622 1.794910 -22.534400 22.291600 -0.000001 0.000005 5.542360 5.486910 -6.015070 12.994500 -0.242716 -4.980390 89.270500 2.283010 -72.274800 -5.348130 -0.000001 -0.000004 -70.740500 -23.413800 -84.658800 -24.328900 0.000322 -0.000009 19.108700 -1.236380 -93.564500 -22.291500 -0.000108 -0.000004 25.628300 5.305760 -0.089957 -2.192480 -6.469440 -0.000000 -175.461000 -5.671340 -1.480620 39.081100 -0.000007 -0.000012 -0.114742 0.265791 23.349900 40.985400 -0.000006 -0.000013 -0.366382 2.259740 -67.018100 11.754300 -0.000000 0.000003 -0.000044 -0.000504 -16.597200 -2.192510 6.469440 -0.000001 179.558000 13.080600 -179.455000 -39.081100 -0.002282 -0.040193 0.005290 -0.005299 20.383300 -40.985400 0.000008 0.000006 4.791990 7.414760 -66.559300 -11.754300 -0.000006 -0.000006 -0.007852 -0.086816 -20.108200
0.000000 0.000000 0.000000 0.000000 0.000000 -0.000000 -0.543566 92.208800 -0.297469 87.900000 -1.329670 5.033110 15.735700 0.000005 -0.000001 98.674300 85.609000 -99.361900 8.984550 -0.406207 -0.000000 0.924340 1.365000 -1.385200 16.377300 -0.000001 -0.000001 4.221280 -2.301360 0.981449 6.456720 -0.000001 -0.000000 1.177380 -2.213800 -5.332500 12.994200 -0.242716 4.980390 -90.032000 0.101889 -72.558900 5.348090 -0.000007 -0.000001 -67.389800 38.710900 -12.799800 24.328600 0.000019 0.000005 0.708465 1.702350 -22.598300 22.291600 -0.000001 0.000005 5.593780 5.486500 -5.999200 12.994500 -0.242716 -4.980390 89.270600 2.280260 -72.257000 -5.348130 -0.000001 -0.000004 -70.675900 -23.481800 -84.705900 -24.328900 0.000322 -0.000009 19.017500 -1.220690 -93.537600 -22.291500 -0.000108 -0.000004 25.531300 5.310210 -0.215963 -2.192480 -6.469440 -0.000000 -175.485000 -5.616500 -1.494490 39.081100 -0.000007 -0.000012 -0.113834 0.263719 23.347600 40.985400 -0.000006 -0.000013 -0.370935 2.163550 -67.012800 11.754300 -0.000000 0.000003 -0.000049 -0.000555 -16.599100 -2.192510 6.469440 -0.000001 179.561000 13.076200 -179.481000 -39.081100 -0.002282 -0.040193 0.005175 -0.004993 20.372800 -40.985400 0.000008 0.000006 4.741110 7.424910 -66.524100 -11.754300 -0.000006 -0.000006 -0.008051 -0.088445 -20.174700
0.000000 0.000000 0.000000 0.000000 0.000000 -0.000000 -0.538657 92.214700 -0.311671 87.898300 -1.342720 5.064460 15.735700 0.000005 -0.000001 98.504800 85.592400 -99.181000 8.984550 -0.406207 -0.000000 0.960937 1.343340 -1.362750 16.377300 -0.000001 -0.000001 4.226190 -2.328600 1.012430 6.456720 -0.000001 -0.000000 1.136380 -2.251790 -5.320620 12.994200 -0.242716 4.980390 -90.036500 0.116115 -72.565100 5.348090 -0.000007 -0.000001 -67.541000 38.851200 -12.680500 24.328600 0.000019 0.000005 0.677287 1.625010 -22.628100 22.291600 -0.000001 0.000005 5.541050 5.486900 -6.014610 12.994500 -0.242716 -4.980390 89.274500 2.264820 -72.232500 -5.348130 -0.000001 -0.000004 -70.624400 -23.543300 -84.836300 -24.328900 0.000322 -0.000009 19.072400 -1.199790 -93.466400 -22.291500 -0.000108 -0.000004 25.552500 5.310170 -0.214925 -2.192480 -6.469440 -0.000000 -175.481000 -5.640350 -1.458270 39.081100 -0.000007 -0.000012 -0.114100 0.264717 23.317400 40.985400 -0.000006 -0.000013 -0.362401 2.183050 -66.986700 11.754300 -0.000000 0.000003 -0.000037 -0.000434 -16.594500 -2.192510 6.469440 -0.000001 179.573000 13.056400 -179.451000 -39.081100 -0.002282 -0.040193 0.008074 -0.012816 20.349400 -40.985400 0.000008 0.000006 4.805510 7.388140 -66.509200 -11.754300 -0.000006 -0.000006 -0.007708 -0.085631 -20.059800
0.000000 0.000000 0.000000 0.000000 0.000000 -0.000000 -0.534359 92.207400 -0.332394 87.883800 -1.322380 5.055630 15.735700 0.000005 -0.000001 98.347000 85.592200 -99.013800 8.984550 -0.406207 -0.000000 0.964473 1.318790 -1.343740 16.377300 -0.000001 -0.000001 4.252690 -2.355990 1.041940 6.456720 -0.000001 -0.000000 1.146590 -2.283830 -5.288800 12.994200 -0.242716 4.980390 -90.026900 0.085529 -72.573800 5.348090 -0.000007 -0.000001 -67.753200 38.936100 -12.514200 24.328600 0.000019 0.000005 0.720203 1.727830 -22.630500 22.291600 -0.000001 0.000005 5.540910 5.485400 -5.956230 12.994500 -0.242716 -4.980390 89.286600 2.222390 -72.198300 -5.348130 -0.000001 -0.000004 -70.664700 -23.666000 -84.901900 -24.328900 0.000322 -0.000009 18.860600 -1.186890 -93.470600 -22.291500 -0.000108 -0.000004 25.506500 5.311190 -0.243819 -2.192480 -6.469440 -0.000000 -175.459000 -5.701180 -1.517670 39.081100 -0.000007 -0.000012 -0.115482 0.266954 23.393000 40.985400 -0.000006 -0.000013 -0.346824 2.237790 -67.011000 11.754300 -0.000000 0.000003 -0.000053 -0.000593 -16.600600 -2.192510 6.469440 -0.000001 179.579000 13.032100 -179.500000 -39.081100 -0.002282 -0.040193 0.005360 -0.005486 20.396900 -40.985400 0.000008 0.000006 4.727440 7.378750 -66.504100 -11.754300 -0.000006 -0.000006 -0.008013 -0.088137 -20.162100
